<?xml version="1.0" encoding="utf-8"?>
<!-- Generator: Adobe Illustrator 16.0.0, SVG Export Plug-In . SVG Version: 6.00 Build 0)  -->
<!DOCTYPE svg PUBLIC "-//W3C//DTD SVG 1.1//EN" "http://www.w3.org/Graphics/SVG/1.1/DTD/svg11.dtd">
<svg version="1.1" id="Layer_1" xmlns="http://www.w3.org/2000/svg" xmlns:xlink="http://www.w3.org/1999/xlink" x="0px" y="0px"
	 width="32px" height="32px" viewBox="0 0 32 32" enable-background="new 0 0 32 32" xml:space="preserve">
<g>
	<rect y="0" fill="#003278" width="32" height="32"/>
	<g>
		<g>
			<g enable-background="new    ">
				<g enable-background="new    ">
					<defs>
						<path id="SVGID_1_" enable-background="new    " d="M22.156,20.658l3.191,1.736c-0.146-0.08-0.299-0.106-0.481-0.081
							l-3.191-1.735C21.857,20.552,22.011,20.579,22.156,20.658z"/>
					</defs>
					<clipPath id="SVGID_2_">
						<use xlink:href="#SVGID_1_"  overflow="visible"/>
					</clipPath>
					<g clip-path="url(#SVGID_2_)" enable-background="new    ">
						<path fill="#A8CFFF" d="M24.866,22.313l-3.191-1.735c0.027-0.004,0.055-0.007,0.081-0.009l3.191,1.736
							C24.921,22.308,24.894,22.31,24.866,22.313"/>
						<path fill="#A7CFFF" d="M24.947,22.306l-3.191-1.736c0.022-0.001,0.044-0.001,0.065-0.001l3.191,1.736
							C24.991,22.304,24.969,22.305,24.947,22.306"/>
						<path fill="#A7CFFF" d="M25.013,22.305l-3.191-1.736c0.013,0,0.024,0.001,0.037,0.002l3.191,1.736
							C25.037,22.306,25.025,22.305,25.013,22.305"/>
						<path fill="#A6CFFF" d="M25.05,22.307l-3.191-1.736c0.01,0.001,0.019,0.001,0.028,0.002l3.191,1.736
							C25.068,22.308,25.059,22.307,25.05,22.307"/>
						<path fill="#A6CEFF" d="M25.078,22.309l-3.191-1.736c0.008,0.001,0.016,0.002,0.023,0.004l3.191,1.735
							C25.094,22.311,25.086,22.31,25.078,22.309"/>
						<path fill="#A5CEFF" d="M25.102,22.312l-3.191-1.735c0.008,0,0.015,0.002,0.021,0.003l3.191,1.735
							C25.116,22.313,25.108,22.313,25.102,22.312"/>
						<path fill="#A5CEFF" d="M25.123,22.314l-3.191-1.735c0.006,0.001,0.012,0.002,0.019,0.003l3.191,1.736
							C25.135,22.317,25.129,22.316,25.123,22.314"/>
						<path fill="#A4CEFF" d="M25.142,22.318l-3.191-1.736c0.006,0.002,0.012,0.003,0.018,0.004l3.19,1.736
							C25.153,22.32,25.147,22.319,25.142,22.318"/>
						<path fill="#A4CDFF" d="M25.158,22.322l-3.19-1.736c0.005,0.001,0.011,0.003,0.016,0.004l3.191,1.736
							C25.169,22.324,25.164,22.323,25.158,22.322"/>
						<path fill="#A3CDFF" d="M25.175,22.326l-3.191-1.736c0.005,0.001,0.01,0.003,0.016,0.004l3.191,1.736
							C25.185,22.328,25.18,22.327,25.175,22.326"/>
						<polyline fill="#A3CDFF" points="25.19,22.33 21.999,20.594 22.013,20.598 25.204,22.334 25.19,22.33 						"/>
						<polyline fill="#A2CDFF" points="25.204,22.334 22.013,20.598 22.027,20.603 25.219,22.339 25.204,22.334 						"/>
						<polyline fill="#A2CCFF" points="25.219,22.339 22.027,20.603 22.041,20.606 25.231,22.343 25.219,22.339 						"/>
						<polyline fill="#A1CCFF" points="25.231,22.343 22.041,20.606 22.054,20.611 25.245,22.348 25.231,22.343 						"/>
						<polyline fill="#A1CCFF" points="25.245,22.348 22.054,20.611 22.066,20.616 25.258,22.353 25.245,22.348 						"/>
						<polyline fill="#A0CBFF" points="25.258,22.353 22.066,20.616 22.079,20.621 25.271,22.357 25.258,22.353 						"/>
						<polyline fill="#A0CBFF" points="25.271,22.357 22.079,20.621 22.091,20.626 25.282,22.362 25.271,22.357 						"/>
						<polyline fill="#A0CBFF" points="25.282,22.362 22.091,20.626 22.104,20.632 25.295,22.368 25.282,22.362 						"/>
						<polyline fill="#9FCBFF" points="25.295,22.368 22.104,20.632 22.115,20.638 25.307,22.373 25.295,22.368 						"/>
						<polyline fill="#9FCAFF" points="25.307,22.373 22.115,20.638 22.127,20.643 25.318,22.379 25.307,22.373 						"/>
						<polyline fill="#9ECAFF" points="25.318,22.379 22.127,20.643 22.139,20.649 25.33,22.385 25.318,22.379 						"/>
						<polyline fill="#9ECAFF" points="25.33,22.385 22.139,20.649 22.15,20.655 25.342,22.392 25.33,22.385 						"/>
						<polyline fill="#9DCAFF" points="25.342,22.392 22.15,20.655 22.156,20.658 25.348,22.395 25.342,22.392 						"/>
					</g>
				</g>
				<g>
					<polygon fill="#B4D6FF" points="15.278,23.661 12.087,21.926 21.675,20.578 24.866,22.313 					"/>
				</g>
				<g enable-background="new    ">
					<defs>
						<path id="SVGID_3_" enable-background="new    " d="M9.843,29.688l-3.191-1.736c-0.049-0.026-0.097-0.061-0.142-0.1
							l3.191,1.735C9.747,29.628,9.793,29.661,9.843,29.688z"/>
					</defs>
					<clipPath id="SVGID_4_">
						<use xlink:href="#SVGID_3_"  overflow="visible"/>
					</clipPath>
					<g clip-path="url(#SVGID_4_)" enable-background="new    ">
						<path fill="#80BAFF" d="M9.843,29.688l-3.191-1.736c-0.049-0.026-0.097-0.061-0.142-0.1l3.191,1.735
							C9.747,29.628,9.793,29.661,9.843,29.688"/>
					</g>
				</g>
				<g enable-background="new    ">
					<defs>
						<path id="SVGID_5_" enable-background="new    " d="M9.701,29.588L6.51,27.853c-0.16-0.177-0.255-0.371-0.255-0.621
							l3.191,1.736C9.446,29.218,9.542,29.412,9.701,29.588z"/>
					</defs>
					<clipPath id="SVGID_6_">
						<use xlink:href="#SVGID_5_"  overflow="visible"/>
					</clipPath>
					<g clip-path="url(#SVGID_6_)" enable-background="new    ">
						<path fill="#80BAFF" d="M9.701,29.588L6.51,27.853c-0.16-0.177-0.255-0.371-0.255-0.621l3.191,1.736
							C9.446,29.218,9.542,29.412,9.701,29.588"/>
					</g>
				</g>
				<g enable-background="new    ">
					<defs>
						<path id="SVGID_7_" enable-background="new    " d="M11.727,3.788l3.191,1.736c-0.132-0.072-0.285-0.106-0.455-0.082
							l-3.191-1.736C11.442,3.682,11.594,3.716,11.727,3.788z"/>
					</defs>
					<clipPath id="SVGID_8_">
						<use xlink:href="#SVGID_7_"  overflow="visible"/>
					</clipPath>
					<g clip-path="url(#SVGID_8_)" enable-background="new    ">
						<path fill="#A8CFFF" d="M14.463,5.442l-3.191-1.736c0.022-0.003,0.044-0.005,0.065-0.006l3.191,1.736
							C14.508,5.437,14.486,5.438,14.463,5.442"/>
						<path fill="#A7CFFF" d="M14.529,5.435l-3.191-1.736c0.019-0.001,0.038-0.001,0.056-0.001l3.191,1.736
							C14.567,5.434,14.548,5.434,14.529,5.435"/>
						<path fill="#A7CFFF" d="M14.585,5.435l-3.191-1.736c0.012,0,0.023,0.001,0.035,0.001l3.191,1.736
							C14.608,5.435,14.597,5.435,14.585,5.435"/>
						<path fill="#A6CFFF" d="M14.62,5.436L11.429,3.7c0.009,0.001,0.019,0.001,0.027,0.002l3.191,1.736
							C14.638,5.438,14.629,5.437,14.62,5.436"/>
						<path fill="#A6CEFF" d="M14.647,5.438l-3.191-1.736c0.008,0.001,0.016,0.002,0.023,0.003l3.191,1.736
							C14.663,5.44,14.655,5.439,14.647,5.438"/>
						<path fill="#A5CEFF" d="M14.671,5.441l-3.191-1.736c0.007,0.001,0.014,0.002,0.021,0.003l3.191,1.736
							C14.685,5.443,14.678,5.442,14.671,5.441"/>
						<path fill="#A5CEFF" d="M14.691,5.444L11.5,3.708c0.006,0.001,0.012,0.002,0.019,0.003l3.191,1.736
							C14.704,5.447,14.698,5.445,14.691,5.444"/>
						<path fill="#A4CEFF" d="M14.71,5.448l-3.191-1.736c0.006,0.001,0.012,0.002,0.018,0.004l3.191,1.736
							C14.722,5.45,14.716,5.449,14.71,5.448"/>
						<path fill="#A4CDFF" d="M14.728,5.452l-3.191-1.736c0.005,0.001,0.011,0.002,0.017,0.004l3.191,1.736
							C14.739,5.454,14.733,5.453,14.728,5.452"/>
						<path fill="#A3CDFF" d="M14.744,5.456L11.553,3.72c0.005,0.001,0.01,0.002,0.016,0.004L14.76,5.46
							C14.755,5.458,14.75,5.457,14.744,5.456"/>
						<polyline fill="#A3CDFF" points="14.76,5.46 11.569,3.724 11.583,3.728 14.775,5.464 14.76,5.46 						"/>
						<polyline fill="#A2CDFF" points="14.775,5.464 11.583,3.728 11.598,3.732 14.789,5.468 14.775,5.464 						"/>
						<polyline fill="#A2CCFF" points="14.789,5.468 11.598,3.732 11.611,3.737 14.803,5.473 14.789,5.468 						"/>
						<polyline fill="#A1CCFF" points="14.803,5.473 11.611,3.737 11.625,3.742 14.816,5.478 14.803,5.473 						"/>
						<polyline fill="#A1CCFF" points="14.816,5.478 11.625,3.742 11.638,3.747 14.829,5.482 14.816,5.478 						"/>
						<polyline fill="#A0CBFF" points="14.829,5.482 11.638,3.747 11.65,3.751 14.842,5.488 14.829,5.482 						"/>
						<polyline fill="#A0CBFF" points="14.842,5.488 11.65,3.751 11.663,3.757 14.854,5.493 14.842,5.488 						"/>
						<polyline fill="#A0CBFF" points="14.854,5.493 11.663,3.757 11.675,3.762 14.866,5.498 14.854,5.493 						"/>
						<polyline fill="#9FCBFF" points="14.866,5.498 11.675,3.762 11.687,3.768 14.878,5.503 14.866,5.498 						"/>
						<polyline fill="#9FCAFF" points="14.878,5.503 11.687,3.768 11.698,3.773 14.89,5.509 14.878,5.503 						"/>
						<polyline fill="#9ECAFF" points="14.89,5.509 11.698,3.773 11.71,3.779 14.901,5.515 14.89,5.509 						"/>
						<polyline fill="#9ECAFF" points="14.901,5.515 11.71,3.779 11.721,3.785 14.913,5.521 14.901,5.515 						"/>
						<polyline fill="#9DCAFF" points="14.913,5.521 11.721,3.785 11.727,3.788 14.918,5.524 14.913,5.521 						"/>
					</g>
				</g>
				<g>
					<polygon fill="#B4D6FF" points="10.346,6.021 7.155,4.284 11.272,3.706 14.463,5.442 					"/>
				</g>
				<g>
					<polygon fill="#82BBFF" points="9.447,28.968 6.255,27.231 6.296,5.321 9.488,7.058 					"/>
				</g>
				<g enable-background="new    ">
					<defs>
						<path id="SVGID_9_" enable-background="new    " d="M9.745,6.364L6.554,4.628c0.169-0.18,0.369-0.312,0.602-0.344l3.191,1.736
							C10.114,6.053,9.914,6.185,9.745,6.364z"/>
					</defs>
					<clipPath id="SVGID_10_">
						<use xlink:href="#SVGID_9_"  overflow="visible"/>
					</clipPath>
					<g clip-path="url(#SVGID_10_)" enable-background="new    ">
						<polyline fill="#95C5FF" points="9.745,6.364 6.554,4.628 6.557,4.625 9.749,6.36 9.745,6.364 						"/>
						<polyline fill="#96C6FF" points="9.749,6.36 6.557,4.625 6.569,4.612 9.76,6.348 9.749,6.36 						"/>
						<polyline fill="#96C6FF" points="9.76,6.348 6.569,4.612 6.581,4.6 9.772,6.336 9.76,6.348 						"/>
						<polyline fill="#97C6FF" points="9.772,6.336 6.581,4.6 6.592,4.588 9.784,6.324 9.772,6.336 						"/>
						<polyline fill="#97C7FF" points="9.784,6.324 6.592,4.588 6.604,4.577 9.795,6.313 9.784,6.324 						"/>
						<polyline fill="#98C7FF" points="9.795,6.313 6.604,4.577 6.616,4.566 9.807,6.302 9.795,6.313 						"/>
						<polyline fill="#98C7FF" points="9.807,6.302 6.616,4.566 6.627,4.555 9.818,6.291 9.807,6.302 						"/>
						<polyline fill="#99C7FF" points="9.818,6.291 6.627,4.555 6.639,4.544 9.83,6.28 9.818,6.291 						"/>
						<polyline fill="#99C8FF" points="9.83,6.28 6.639,4.544 6.65,4.534 9.842,6.27 9.83,6.28 						"/>
						<polyline fill="#9AC8FF" points="9.842,6.27 6.65,4.534 6.662,4.524 9.853,6.26 9.842,6.27 						"/>
						<polyline fill="#9AC8FF" points="9.853,6.26 6.662,4.524 6.673,4.514 9.865,6.25 9.853,6.26 						"/>
						<polyline fill="#9BC8FF" points="9.865,6.25 6.673,4.514 6.685,4.504 9.876,6.24 9.865,6.25 						"/>
						<polyline fill="#9BC9FF" points="9.876,6.24 6.685,4.504 6.696,4.495 9.888,6.231 9.876,6.24 						"/>
						<polyline fill="#9CC9FF" points="9.888,6.231 6.696,4.495 6.708,4.486 9.899,6.222 9.888,6.231 						"/>
						<polyline fill="#9CC9FF" points="9.899,6.222 6.708,4.486 6.72,4.477 9.911,6.212 9.899,6.222 						"/>
						<polyline fill="#9DC9FF" points="9.911,6.212 6.72,4.477 6.731,4.468 9.923,6.204 9.911,6.212 						"/>
						<polyline fill="#9DCAFF" points="9.923,6.204 6.731,4.468 6.743,4.459 9.935,6.195 9.923,6.204 						"/>
						<polyline fill="#9ECAFF" points="9.935,6.195 6.743,4.459 6.755,4.45 9.947,6.187 9.935,6.195 						"/>
						<polyline fill="#9ECAFF" points="9.947,6.187 6.755,4.45 6.768,4.442 9.958,6.178 9.947,6.187 						"/>
						<polyline fill="#9FCAFF" points="9.958,6.178 6.768,4.442 6.78,4.434 9.971,6.169 9.958,6.178 						"/>
						<polyline fill="#9FCBFF" points="9.971,6.169 6.78,4.434 6.792,4.425 9.983,6.161 9.971,6.169 						"/>
						<polyline fill="#A0CBFF" points="9.983,6.161 6.792,4.425 6.805,4.417 9.996,6.153 9.983,6.161 						"/>
						<polyline fill="#A0CBFF" points="9.996,6.153 6.805,4.417 6.817,4.409 10.009,6.145 9.996,6.153 						"/>
						<polyline fill="#A0CBFF" points="10.009,6.145 6.817,4.409 6.831,4.401 10.021,6.137 10.009,6.145 						"/>
						<polyline fill="#A1CCFF" points="10.021,6.137 6.831,4.401 6.844,4.394 10.035,6.129 10.021,6.137 						"/>
						<polyline fill="#A1CCFF" points="10.035,6.129 6.844,4.394 6.857,4.386 10.049,6.122 10.035,6.129 						"/>
						<polyline fill="#A2CCFF" points="10.049,6.122 6.857,4.386 6.872,4.378 10.063,6.114 10.049,6.122 						"/>
						<polyline fill="#A2CDFF" points="10.063,6.114 6.872,4.378 6.886,4.371 10.078,6.106 10.063,6.114 						"/>
						<path fill="#A3CDFF" d="M10.078,6.106L6.886,4.371c0.005-0.002,0.01-0.005,0.016-0.008l3.191,1.736
							C10.088,6.102,10.083,6.104,10.078,6.106"/>
						<path fill="#A3CDFF" d="M10.093,6.099L6.902,4.363c0.005-0.002,0.01-0.005,0.016-0.007l3.191,1.736
							C10.104,6.094,10.098,6.096,10.093,6.099"/>
						<path fill="#A4CDFF" d="M10.109,6.091L6.917,4.355C6.923,4.353,6.929,4.35,6.935,4.348l3.191,1.736
							C10.12,6.086,10.114,6.089,10.109,6.091"/>
						<path fill="#A4CEFF" d="M10.126,6.084L6.935,4.348C6.94,4.345,6.946,4.343,6.952,4.34l3.191,1.736
							C10.138,6.079,10.132,6.081,10.126,6.084"/>
						<path fill="#A5CEFF" d="M10.144,6.076L6.952,4.34c0.006-0.003,0.013-0.005,0.02-0.008l3.191,1.736
							C10.156,6.071,10.15,6.074,10.144,6.076"/>
						<path fill="#A5CEFF" d="M10.163,6.068L6.972,4.333C6.979,4.33,6.985,4.327,6.992,4.325l3.191,1.736
							C10.177,6.063,10.17,6.066,10.163,6.068"/>
						<path fill="#A6CEFF" d="M10.184,6.061L6.992,4.325C7,4.322,7.008,4.319,7.016,4.316l3.191,1.736
							C10.199,6.055,10.191,6.058,10.184,6.061"/>
						<path fill="#A6CFFF" d="M10.207,6.053L7.016,4.316c0.009-0.003,0.019-0.006,0.028-0.008l3.191,1.736
							C10.226,6.047,10.216,6.05,10.207,6.053"/>
						<path fill="#A7CFFF" d="M10.235,6.044L7.044,4.308c0.011-0.003,0.023-0.006,0.035-0.009l3.191,1.736
							C10.258,6.038,10.247,6.041,10.235,6.044"/>
						<path fill="#A7CFFF" d="M10.27,6.035L7.079,4.299c0.02-0.005,0.04-0.009,0.06-0.012l3.191,1.736
							C10.31,6.026,10.29,6.03,10.27,6.035"/>
						<path fill="#A8CFFF" d="M10.33,6.023L7.139,4.287c0.005-0.001,0.011-0.002,0.017-0.003l3.191,1.736
							C10.341,6.021,10.335,6.022,10.33,6.023"/>
					</g>
				</g>
				<g>
					<path fill="#FFFFFF" d="M14.463,5.442c0.232-0.033,0.432,0.042,0.592,0.176c0.168,0.167,0.256,0.353,0.255,0.621l-0.033,17.422
						l9.588-1.348c0.232-0.032,0.417,0.02,0.601,0.158c0.167,0.175,0.239,0.372,0.238,0.631l-0.006,3.58
						c-0.001,0.251-0.073,0.468-0.241,0.69c-0.185,0.199-0.369,0.313-0.603,0.345l-14.554,2.046
						c-0.232,0.032-0.432-0.026-0.601-0.176c-0.159-0.176-0.255-0.37-0.254-0.62l0.041-21.91c0-0.269,0.097-0.481,0.257-0.693
						c0.169-0.179,0.369-0.311,0.601-0.344L14.463,5.442z"/>
				</g>
				<g enable-background="new    ">
					<defs>
						<path id="SVGID_11_" enable-background="new    " d="M9.488,7.058L6.296,5.321c0-0.268,0.097-0.48,0.257-0.693l3.191,1.736
							C9.584,6.577,9.488,6.789,9.488,7.058z"/>
					</defs>
					<clipPath id="SVGID_12_">
						<use xlink:href="#SVGID_11_"  overflow="visible"/>
					</clipPath>
					<g clip-path="url(#SVGID_12_)" enable-background="new    ">
						<path fill="#80BAFF" d="M9.488,7.058L6.296,5.321c0-0.045,0.003-0.088,0.008-0.13l3.191,1.736
							C9.491,6.969,9.488,7.012,9.488,7.058"/>
						<path fill="#80BAFF" d="M9.496,6.927L6.305,5.191C6.306,5.177,6.309,5.164,6.311,5.15l3.191,1.736
							C9.5,6.899,9.498,6.913,9.496,6.927"/>
						<path fill="#81BAFF" d="M9.502,6.886L6.311,5.15C6.313,5.14,6.314,5.129,6.316,5.12l3.191,1.736
							C9.505,6.866,9.504,6.876,9.502,6.886"/>
						<path fill="#81BBFF" d="M9.508,6.855L6.316,5.12C6.318,5.111,6.32,5.102,6.322,5.093L9.513,6.83
							C9.511,6.838,9.509,6.847,9.508,6.855"/>
						<path fill="#82BBFF" d="M9.513,6.83L6.322,5.093c0.002-0.007,0.003-0.014,0.005-0.021l3.191,1.736
							C9.517,6.815,9.515,6.822,9.513,6.83"/>
						<path fill="#82BBFF" d="M9.519,6.808L6.327,5.072c0.002-0.007,0.003-0.013,0.005-0.02l3.191,1.736
							C9.522,6.794,9.52,6.801,9.519,6.808"/>
						<path fill="#83BBFF" d="M9.524,6.788L6.333,5.052c0.001-0.006,0.003-0.013,0.005-0.019l3.191,1.736
							C9.527,6.775,9.525,6.781,9.524,6.788"/>
						<path fill="#83BCFF" d="M9.529,6.769L6.338,5.033c0.001-0.006,0.003-0.012,0.005-0.018l3.191,1.736
							C9.533,6.757,9.531,6.763,9.529,6.769"/>
						<path fill="#84BCFF" d="M9.535,6.752L6.343,5.016C6.345,5.01,6.347,5.005,6.349,5L9.54,6.735
							C9.538,6.741,9.536,6.746,9.535,6.752"/>
						<path fill="#84BCFF" d="M9.54,6.735L6.349,5c0.002-0.005,0.003-0.011,0.005-0.016L9.545,6.72
							C9.543,6.725,9.542,6.73,9.54,6.735"/>
						<polyline fill="#85BCFF" points="9.545,6.72 6.354,4.983 6.359,4.969 9.551,6.705 9.545,6.72 						"/>
						<path fill="#85BDFF" d="M9.551,6.705L6.359,4.969c0.002-0.005,0.004-0.01,0.006-0.015L9.557,6.69
							C9.555,6.695,9.553,6.7,9.551,6.705"/>
						<polyline fill="#86BDFF" points="9.557,6.69 6.365,4.954 6.371,4.94 9.562,6.676 9.557,6.69 						"/>
						<polyline fill="#86BDFF" points="9.562,6.676 6.371,4.94 6.376,4.926 9.568,6.662 9.562,6.676 						"/>
						<polyline fill="#87BDFF" points="9.568,6.662 6.376,4.926 6.382,4.912 9.574,6.648 9.568,6.662 						"/>
						<polyline fill="#87BEFF" points="9.574,6.648 6.382,4.912 6.388,4.899 9.58,6.635 9.574,6.648 						"/>
						<polyline fill="#88BEFF" points="9.58,6.635 6.388,4.899 6.395,4.886 9.586,6.622 9.58,6.635 						"/>
						<polyline fill="#88BEFF" points="9.586,6.622 6.395,4.886 6.401,4.873 9.592,6.608 9.586,6.622 						"/>
						<polyline fill="#89BEFF" points="9.592,6.608 6.401,4.873 6.407,4.859 9.599,6.596 9.592,6.608 						"/>
						<polyline fill="#89BFFF" points="9.599,6.596 6.407,4.859 6.414,4.847 9.605,6.583 9.599,6.596 						"/>
						<polyline fill="#8ABFFF" points="9.605,6.583 6.414,4.847 6.421,4.833 9.612,6.569 9.605,6.583 						"/>
						<polyline fill="#8ABFFF" points="9.612,6.569 6.421,4.833 6.428,4.821 9.619,6.557 9.612,6.569 						"/>
						<polyline fill="#8ABFFF" points="9.619,6.557 6.428,4.821 6.435,4.808 9.626,6.543 9.619,6.557 						"/>
						<polyline fill="#8BC0FF" points="9.626,6.543 6.435,4.808 6.442,4.794 9.634,6.53 9.626,6.543 						"/>
						<polyline fill="#8BC0FF" points="9.634,6.53 6.442,4.794 6.45,4.781 9.642,6.517 9.634,6.53 						"/>
						<polyline fill="#8CC0FF" points="9.642,6.517 6.45,4.781 6.458,4.768 9.649,6.504 9.642,6.517 						"/>
						<polyline fill="#8CC1FF" points="9.649,6.504 6.458,4.768 6.467,4.754 9.658,6.49 9.649,6.504 						"/>
						<polyline fill="#8DC1FF" points="9.658,6.49 6.467,4.754 6.476,4.74 9.667,6.477 9.658,6.49 						"/>
						<polyline fill="#8DC1FF" points="9.667,6.477 6.476,4.74 6.484,4.727 9.676,6.462 9.667,6.477 						"/>
						<polyline fill="#8EC1FF" points="9.676,6.462 6.484,4.727 6.494,4.712 9.686,6.448 9.676,6.462 						"/>
						<polyline fill="#8EC2FF" points="9.686,6.448 6.494,4.712 6.504,4.697 9.695,6.433 9.686,6.448 						"/>
						<path fill="#8FC2FF" d="M9.695,6.433L6.504,4.697c0.003-0.005,0.007-0.01,0.011-0.016l3.191,1.736
							C9.702,6.423,9.699,6.428,9.695,6.433"/>
						<path fill="#8FC2FF" d="M9.706,6.418L6.515,4.682c0.003-0.005,0.007-0.01,0.011-0.015l3.191,1.736
							C9.713,6.407,9.709,6.413,9.706,6.418"/>
						<path fill="#90C2FF" d="M9.717,6.402L6.525,4.667C6.529,4.661,6.533,4.655,6.538,4.65l3.191,1.736
							C9.725,6.392,9.721,6.397,9.717,6.402"/>
						<path fill="#90C3FF" d="M9.729,6.386L6.538,4.65C6.542,4.645,6.546,4.639,6.55,4.633l3.191,1.736
							C9.737,6.375,9.733,6.38,9.729,6.386"/>
						<polyline fill="#91C3FF" points="9.741,6.369 6.55,4.633 6.554,4.628 9.745,6.364 9.741,6.369 						"/>
					</g>
				</g>
			</g>
		</g>
	</g>
</g>
</svg>
