<?xml version="1.0" encoding="utf-8"?>
<!-- Generator: Adobe Illustrator 16.0.0, SVG Export Plug-In . SVG Version: 6.00 Build 0)  -->
<!DOCTYPE svg PUBLIC "-//W3C//DTD SVG 1.1//EN" "http://www.w3.org/Graphics/SVG/1.1/DTD/svg11.dtd">
<svg version="1.1" id="Layer_1" xmlns="http://www.w3.org/2000/svg" xmlns:xlink="http://www.w3.org/1999/xlink" x="0px" y="0px"
	 width="32px" height="32px" viewBox="0 0 32 32" enable-background="new 0 0 32 32" xml:space="preserve">
<g>
	<defs>
		<rect id="XMLID_7_" width="32" height="32"/>
	</defs>
	<use xlink:href="#XMLID_7_"  overflow="visible" fill="#003278"/>
	<clipPath id="XMLID_3_">
		<use xlink:href="#XMLID_7_"  overflow="visible"/>
	</clipPath>
	<rect x="-0.958" y="-1.986" clip-path="url(#XMLID_3_)" fill="#81BDFF" width="10.041" height="38.037"/>
	<rect x="9.083" y="-1.986" clip-path="url(#XMLID_3_)" fill="#05386B" width="24.591" height="38.037"/>
	<path clip-path="url(#XMLID_3_)" fill="#FFFFFF" d="M26.6,24.717c0.332,0,0.604,0.113,0.867,0.326
		c0.246,0.277,0.357,0.549,0.357,0.902v4.82c0,0.344-0.111,0.623-0.357,0.889C27.203,31.895,26.932,32,26.6,32H5.416
		c-0.337,0-0.63-0.105-0.868-0.346c-0.238-0.266-0.371-0.545-0.371-0.889V1.232c0-0.352,0.133-0.631,0.371-0.875
		C4.786,0.137,5.079,0,5.416,0h5.99c0.341,0,0.634,0.137,0.87,0.357c0.238,0.244,0.371,0.523,0.371,0.875v23.484H26.6z"/>
</g>
</svg>
