<svg width="439" height="334" viewBox="0 0 439 334" fill="none" xmlns="http://www.w3.org/2000/svg">
<path d="M418.795 158.156C423.365 170.585 408.214 189.233 396.745 203.429C389.477 212.426 380.838 223.766 368.994 231.655C351.363 243.4 328.984 253.309 308.117 261.166C274.228 273.925 234.959 273.385 213.66 263.005C186.553 249.794 170.58 228.074 155.802 208.061C141.407 188.568 129.27 168.1 112.704 149.626C101.117 136.703 88.9781 120.113 66.9551 113.497C60.162 111.457 51.9101 112.469 43.3902 117.172C35.8644 121.326 36.2718 125.02 37.6446 128.754" stroke="#9EAFE8" stroke-width="3" stroke-linecap="round" stroke-dasharray="8 8"/>
<path d="M31.1229 114.035L43.7378 130.021C44.6105 131.127 43.4315 132.955 41.8672 132.919L25.8931 132.559C24.9247 132.537 24.302 131.748 24.5056 130.801L27.8697 115.181C28.1986 113.651 30.2502 112.929 31.1229 114.035Z" fill="#9EAFE8"/>
</svg>
