<svg width="1184" height="492" viewBox="0 0 1184 492" fill="none" xmlns="http://www.w3.org/2000/svg">
<path d="M1182.24 489.757C1122.9 469.396 1076.32 461.193 1016.35 457.507C952.041 453.553 911.164 480.337 845.189 475.563C793.709 471.837 738.47 465.973 685.831 452.266C642.509 440.985 622.033 434.7 593.032 410.54C569.349 390.811 549.932 369.557 528.845 349.246C511.627 332.66 504.95 314.644 488.28 298.19C460.166 270.442 419.098 251.385 374.69 235.373C316.481 214.385 249.572 199.852 189.618 183.048C135.393 167.849 83.0796 144.036 54.864 110.228C37.9351 89.9441 32.6876 67.4489 23.606 46.9701C16.9257 31.9061 9.64797 17.2892 1.88015 2.21267" stroke="#9EAFE8" stroke-width="3" stroke-linecap="round" stroke-dasharray="8 8"/>
</svg>
