<svg width="470" height="360" viewBox="0 0 470 360" fill="none" xmlns="http://www.w3.org/2000/svg">
<g clip-path="url(#clip0_316_1233)">
<path d="M396.101 344.686C397.952 344.796 398.974 342.587 397.573 341.3L397.434 340.768C397.452 340.725 397.47 340.683 397.489 340.64C398.593 338.11 401.632 336.912 404.271 337.96C412.615 341.275 403.806 348.891 404.468 354.044C404.7 355.823 411.952 355.921 411.542 357.667C415.398 349.566 417.426 340.721 417.423 331.826C417.422 329.592 417.294 327.357 417.033 325.128C416.818 323.304 416.522 321.492 416.14 319.697C414.071 309.991 409.595 300.748 403.141 293.029C400.039 291.401 401.931 288.854 400.367 285.803C399.806 284.703 394.797 284.678 394.589 283.472C394.813 283.5 398.05 280.269 396.981 278.672C396.277 277.621 396.496 276.282 397.4 275.384C397.489 275.296 397.573 275.203 397.649 275.103C400.32 271.622 404.001 272.228 405.924 276.957C410.029 278.946 410.07 282.247 407.553 285.423C405.951 287.443 405.732 290.176 404.327 292.339C404.471 292.517 404.622 292.689 404.767 292.867C407.42 296.135 409.716 299.648 411.651 303.338C411.103 299.236 411.908 294.294 413.283 291.108C414.859 287.451 417.824 284.375 420.421 281.213C423.523 277.435 429.836 279.15 430.385 283.932C430.39 283.978 430.395 284.024 430.4 284.07C430.016 284.278 429.64 284.499 429.272 284.733C427.177 286.066 427.903 289.187 430.387 289.554L430.443 289.562C430.304 290.891 425.397 295.076 425.051 296.372C428.37 308.687 425.886 310.313 415.675 310.519L415.139 311.252C416.107 313.925 416.885 316.663 417.47 319.435C418.021 322.009 418.404 324.61 418.619 327.223C418.886 330.519 418.864 333.833 418.576 337.124L418.593 337.007C419.327 333.382 421.374 329.996 424.347 327.649C428.776 324.151 435.034 322.861 439.813 320.049C442.113 318.695 445.062 320.443 444.661 323.006L444.642 323.128C443.93 323.407 443.236 323.729 442.565 324.091C442.181 324.299 441.804 324.521 441.436 324.755C439.341 326.088 440.067 329.209 442.551 329.575L442.608 329.583C442.648 329.589 442.683 329.594 442.723 329.6C441.504 332.385 429.882 336.314 427.753 338.544C425.684 349.301 426.7 348.981 417.173 345.852H417.167C416.127 350.21 414.607 354.469 412.653 358.528L396.511 358.533C396.453 358.361 396.401 358.183 396.348 358.011C397.841 358.099 399.345 358.015 400.815 357.754C399.617 356.342 398.419 354.919 397.22 353.508C397.192 353.48 397.168 353.452 397.145 353.424L397.127 353.403L395.465 348.146C395.596 346.98 395.81 345.824 396.101 344.686L396.101 344.686V344.686V344.686Z" fill="#F2F2F2"/>
<path d="M225.513 358.406L82.6711 358.454C75.4951 358.456 69.067 354.893 65.4768 348.924C63.6815 345.938 62.7837 342.663 62.7825 339.388C62.7813 336.113 63.6772 332.837 65.47 329.851L136.846 205.01C140.432 199.037 146.857 195.47 154.034 195.468C161.21 195.465 167.638 199.028 171.228 204.998L242.703 329.808C244.494 332.785 245.389 336.056 245.39 339.329C245.389 342.603 244.494 345.878 242.701 348.865C239.115 354.837 232.689 358.404 225.513 358.406H225.513H225.513ZM64.578 339.386C64.5778 342.367 80.34 335.943 81.9729 338.658C85.2392 344.089 76.1418 356.735 82.6705 356.732C82.6705 356.732 237.887 353.438 241.149 348.004C242.78 345.288 243.595 342.308 243.594 339.328C243.593 336.348 242.776 333.369 241.142 330.653L169.667 205.844C166.41 200.428 160.563 197.187 154.034 197.189C147.509 197.191 64.5783 336.404 64.578 339.386H64.578Z" fill="#3F3D56"/>
<path d="M227.1 356.685C225.309 360.129 309.168 359.071 310.159 359.07C310.159 359.07 333.729 358.57 334.225 357.745C334.472 357.332 334.596 356.88 334.596 356.427C334.596 355.975 334.472 355.522 334.224 355.11L323.37 336.157C322.875 335.335 321.987 334.842 320.996 334.843C320.955 334.843 320.894 334.878 320.815 334.945C306.336 347.377 288.492 355.595 269.076 355.873C248.431 356.168 227.214 356.467 227.1 356.685H227.1Z" fill="#3F3D56"/>
<path d="M6.70519e-08 358.976C0.000206101 359.545 0.475169 360.001 1.06642 360L468.934 359.845C469.526 359.845 470 359.388 470 358.82C470 358.252 469.525 357.796 468.934 357.796L1.06569 357.952C0.474434 357.952 -0.000205967 358.408 6.70519e-08 358.976H6.70519e-08Z" fill="#CCCCCC"/>
<path d="M361.796 354.004L353.693 354.006L349.828 323.98L361.786 323.977L361.796 354.004Z" fill="#A0616A"/>
<path d="M334.037 353.837C333.785 354.245 333.652 355.563 333.652 356.037C333.653 357.496 334.884 358.679 336.403 358.679L361.495 358.67C362.531 358.67 363.37 357.863 363.37 356.867L363.37 355.863C363.37 355.863 364.61 352.846 362.053 349.129C362.053 349.129 358.878 352.041 354.13 347.483L352.73 345.047L342.601 352.17L336.986 352.836C335.758 352.981 334.668 352.814 334.037 353.837H334.037Z" fill="#2F2E41"/>
<path d="M330.726 328.325L323.052 330.82L309.381 303.565L320.709 299.882L330.726 328.325Z" fill="#A0616A"/>
<path d="M304.373 336.708C304.271 337.173 304.584 338.462 304.743 338.911C305.23 340.294 306.79 341.035 308.229 340.567L331.996 332.838C332.978 332.519 333.504 331.496 333.172 330.553L332.837 329.602C332.837 329.602 333.006 326.362 329.345 323.627C329.345 323.627 327.308 327.364 321.291 324.506L319.152 322.63L311.931 332.494L306.834 334.852C305.719 335.369 304.631 335.545 304.373 336.708L304.373 336.708Z" fill="#2F2E41"/>
<path d="M318.213 154.14L302.498 204.146L283.945 249.127L313.317 313.363L324.208 308.708L311.176 249.699L338.505 209.658L351.258 334.657L362.15 334.072L376.921 183.191L379.027 150.34L318.213 154.14Z" fill="#2F2E41"/>
<path d="M365.676 43.3658L342.682 47.4434L340.87 57.3279L326.955 63.7281L319.719 136.407C319.719 136.407 307.622 151.527 317.306 156.175L379.027 150.341C379.027 150.341 382.049 139.591 379.023 138.571C375.997 137.551 375.988 111.873 375.988 111.873L389.887 59.0559L369.31 52.0858L365.676 43.3658Z" fill="#E6E6E6"/>
<path d="M352.113 43.1749C362.368 43.1749 370.681 35.1877 370.681 25.335C370.681 15.4823 362.368 7.49512 352.113 7.49512C341.858 7.49512 333.545 15.4823 333.545 25.335C333.545 35.1877 341.858 43.1749 352.113 43.1749Z" fill="#A0616A"/>
<path d="M364.409 27.9828C362.927 28.7621 364.333 32.483 363.407 32.8047C362.336 33.1766 358.433 28.9083 358.385 24.1275C358.371 22.6806 358.717 21.9858 358.384 20.2702C357.948 18.0262 356.61 15.3794 355.371 15.4496C354.637 15.4913 353.92 16.4887 353.866 17.3788C353.791 18.6263 355.052 19.1173 354.871 19.7893C354.525 21.0692 349.229 21.9528 347.343 19.7918C345.865 18.0975 346.999 15.1228 346.338 14.9705C345.851 14.8582 345.328 16.496 343.328 18.3466C342.575 19.0438 341.454 20.0808 340.819 19.7939C339.902 19.3794 340.569 16.4577 340.316 16.419C340.108 16.3869 339.976 18.4405 338.812 20.2768C337.317 22.6359 334.231 24.4543 332.791 23.6539C331.909 23.1635 331.84 21.7982 331.787 20.7613C331.675 18.5767 328.371 13.5518 329.226 11.2148C330.966 6.45844 333.947 9.81125 335.295 8.22393C337.12 6.07507 338.758 7.2304 341.818 4.84664C344.807 2.51793 344.833 0.177389 346.834 0.0233607C348.637 -0.115347 349.278 1.73206 351.351 1.46834C353.108 1.24493 353.49 -0.187929 354.864 0.020684C356.121 0.21167 356.204 1.47394 357.875 1.94832C358.942 2.25118 359.177 1.81283 360.384 1.94749C362.898 2.22769 364.586 4.42697 364.902 4.83895C366.121 6.42714 365.648 7.09688 366.911 8.69556C368 10.0742 370.413 9.48876 371.32 10.1773C374.284 12.4272 375.558 16.5765 375.584 21.3057C375.602 24.6133 375.153 26.2846 374.151 30.4596C373.391 33.6298 369.868 37.7266 367.926 39.5535C367.404 40.0439 365.943 41.4186 364.915 41.001C363.941 40.6052 363.912 38.8255 363.91 38.5905C363.906 37.7823 364.13 36.7823 365.916 34.2504C367.792 31.5908 368.538 31.2873 368.424 30.3923C368.223 28.8102 365.589 27.3616 364.408 27.9828H364.409Z" fill="#2F2E41"/>
<path d="M299.641 194.308C299.063 198.958 301.091 203.014 304.171 203.367C307.25 203.721 310.216 200.238 310.794 195.588C311.047 193.552 310.8 191.631 310.185 190.084L312.376 170.351L302.716 169.56L301.581 189.096C300.604 190.461 299.894 192.273 299.641 194.308H299.641H299.641Z" fill="#A0616A"/>
<path d="M327.407 63.2586C327.407 63.2586 322.403 63.3269 319.089 69.5449C317.328 72.849 307.908 134.637 307.908 134.637L299.23 185.252L314.012 185.324L325.531 137.39L335.221 109.589L327.407 63.2585L327.407 63.2586Z" fill="#E6E6E6"/>
<path d="M369.008 186.882C367.592 191.363 368.851 195.697 371.819 196.563C374.787 197.428 378.34 194.497 379.756 190.016C380.376 188.054 380.483 186.121 380.159 184.494L385.909 165.434L376.542 163.032L371.868 182.076C370.657 183.256 369.628 184.92 369.008 186.882V186.882Z" fill="#A0616A"/>
<path d="M379.295 59.9314C379.295 59.9314 386.555 54.6963 392.609 62.834C398.664 70.9717 401.108 137.833 401.108 137.833L384.179 179.119L371.47 175.053L383.555 124.467L362.361 86.1005L379.295 59.9314H379.295Z" fill="#E6E6E6"/>
<path d="M195.714 330.875C231.83 330.875 261.107 302.745 261.107 268.045C261.107 233.345 231.83 205.215 195.714 205.215C159.598 205.215 130.321 233.345 130.321 268.045C130.321 302.745 159.598 330.875 195.714 330.875Z" fill="#E91740"/>
<path d="M195.726 306.561C199.042 306.561 201.73 303.978 201.73 300.792C201.73 297.606 199.042 295.023 195.726 295.023C192.41 295.023 189.722 297.606 189.722 300.792C189.722 303.978 192.41 306.561 195.726 306.561Z" fill="white"/>
<path d="M195.7 229.529C195.149 233.05 196.137 233.787 196.143 248.968C196.148 264.148 199.426 284.502 195.72 284.503C192.014 284.504 190.658 242.499 177.789 238.781C162.658 234.41 197.486 218.13 195.7 229.529Z" fill="white"/>
<path d="M107.947 300.123L102.039 312.117C109.181 307.196 120.337 302.954 129.215 300.682C120.943 296.843 110.822 290.654 104.775 284.525L108.173 297.198C68.3331 289.402 39.7235 260.037 39.7114 226.399L38.2723 225.923C38.2849 261.059 66.4987 292.163 107.947 300.123V300.123Z" fill="#3F3D56"/>
</g>
<defs>
<clipPath id="clip0_316_1233">
<rect width="470" height="360" fill="white"/>
</clipPath>
</defs>
</svg>
